<?xml version="1.0" encoding="utf-8"?>
<!-- Generator: Adobe Illustrator 25.1.0, SVG Export Plug-In . SVG Version: 6.00 Build 0)  -->
<svg version="1.1" id="Capa_1" xmlns="http://www.w3.org/2000/svg" xmlns:xlink="http://www.w3.org/1999/xlink" x="0px" y="0px"
	viewBox="0 0 337 337" style="enable-background:new 0 0 337 337;" xml:space="preserve">
	<style type="text/css">
		.st0{fill:#4d84bb;}
	</style>
	<path class="st0" d="M327,261.2h-12.1v-51.7c0-11-9-20-20-20H183.5V149c0-0.4,0-0.8-0.1-1.2h53.1c8.3,0,15-6.7,15-15V25.2
		c0-8.3-6.7-15-15-15h-136c-8.3,0-15,6.7-15,15v107.6c0,8.3,6.7,15,15,15h53.1c0,0.4-0.1,0.8-0.1,1.2v40.4H42.1c-11,0-20,9-20,20
		v51.7H10c-5.5,0-10,4.5-10,10v45.6c0,5.5,4.5,10,10,10h54.3c5.5,0,10-4.5,10-10v-45.6c0-5.5-4.5-10-10-10H52.1v-41.7h101.4v41.7
		h-12.1c-5.5,0-10,4.5-10,10v45.6c0,5.5,4.5,10,10,10h54.3c5.5,0,10-4.5,10-10v-45.6c0-5.5-4.5-10-10-10h-12.1v-41.7h101.4v41.7
		h-12.1c-5.5,0-10,4.5-10,10v45.6c0,5.5,4.5,10,10,10H327c5.5,0,10-4.5,10-10v-45.6C337,265.7,332.5,261.2,327,261.2z M64.3,321.8
		L64.3,321.8L64.3,321.8L64.3,321.8z M195.6,321.8L195.6,321.8L195.6,321.8L195.6,321.8z M327,321.8L327,321.8L327,321.8L327,321.8z"
		/>
	</svg>
