<?xml version="1.0" encoding="utf-8"?>
<!-- Generator: Adobe Illustrator 25.1.0, SVG Export Plug-In . SVG Version: 6.00 Build 0)  -->
<svg version="1.1" id="Capa_1" xmlns="http://www.w3.org/2000/svg" xmlns:xlink="http://www.w3.org/1999/xlink" x="0px" y="0px"
	 viewBox="0 0 27 27" style="enable-background:new 0 0 27 27;" xml:space="preserve">
<style type="text/css">
	.st0{fill:#FFFFFF;}
</style>
<g>
	<path class="st0" d="M3.7,25.9c0,0,0,0.6,0.6,0.6c0.7,0,5.8,0,5.8,0v-6.6c0,0-0.1-0.9,0.8-0.9h4.8c1.1,0,1,0.9,1,0.9v6.6
		c0,0,4.8,0,5.7,0c0.7,0,0.7-0.8,0.7-0.8V13.4L13.7,5l-10,8.4C3.7,13.4,3.7,25.9,3.7,25.9z"/>
	<path class="st0" d="M0,12.6c0,0,0.8,1.6,2.7,0l11-9.3L24,12.6c2.1,1.5,2.9,0,2.9,0l-13.3-12L0,12.6z"/>
</g>
</svg>
