<?xml version="1.0" encoding="utf-8"?>
<!-- Generator: Adobe Illustrator 25.2.3, SVG Export Plug-In . SVG Version: 6.00 Build 0)  -->
<svg version="1.1" id="Layer_1" xmlns="http://www.w3.org/2000/svg" xmlns:xlink="http://www.w3.org/1999/xlink" x="0px" y="0px"
	 viewBox="0 0 512 512" style="enable-background:new 0 0 512 512;" xml:space="preserve">
<style type="text/css">
	.st0{fill:#FFFFFF;}
</style>
<path class="st0" d="M316.8,116.3c-44.9,0-85.8,24.2-107.7,62.6c-72-12.4-132.8,48.2-127.4,113.2c-45.5,3-81.7,41-81.7,87.3
	C0,427.7,39.3,467,87.5,467h221.8c76,0,128.6-76.1,102.4-147C479.1,240.2,422.3,116.3,316.8,116.3z M316.8,149.3
	c71.7,0,114.9,79.5,76.9,139.4c-24.3-29.6-62.1-44.5-100.3-38.9c-9.3-26.3-28.2-47.5-52.2-60.1C257.9,164.7,286.1,149.3,316.8,149.3
	z M309.3,433.9H87.5c-30.1,0-54.5-24.5-54.5-54.5c0-34,31-59.9,64.7-53.6c11.4,2.1,21.4-7.8,19.3-19.2c-1.1-5.9-2.6-16.1-2.6-20.3
	c0-42,34.1-76.1,76.1-76.1c36.7,0,68.2,26.1,74.8,62.1c0.9,4.6,3.7,8.7,7.7,11.1c10.4,6.3,14.7-1.9,36.2-1.9
	c42,0,76.1,34.1,76.1,76.1S351.3,433.9,309.3,433.9L309.3,433.9z M512,240.1c0,9.1-7.4,16.5-16.5,16.5h-18.6
	c-9.1,0-16.5-7.4-16.5-16.5c0-9.1,7.4-16.5,16.5-16.5h18.6C504.6,223.6,512,231,512,240.1z M300.2,80.1V61.6
	c0-9.1,7.4-16.5,16.5-16.5s16.5,7.4,16.5,16.5v18.6c0,9.1-7.4,16.5-16.5,16.5S300.2,89.3,300.2,80.1z M454.8,102.2
	c6.5,6.4,6.5,16.9,0,23.4l-13.1,13.1c-3.2,3.2-7.5,4.8-11.7,4.8c-14.6,0-22.1-17.8-11.7-28.2l13.1-13.1
	C437.9,95.7,448.3,95.7,454.8,102.2L454.8,102.2z M178.8,125.6c-6.5-6.5-6.5-16.9,0-23.4c6.4-6.5,16.9-6.5,23.4,0l13.1,13.1
	c10.4,10.4,2.9,28.2-11.7,28.2c-4.2,0-8.5-1.6-11.7-4.8L178.8,125.6z"/>
</svg>
