<?xml version="1.0" encoding="utf-8"?>
<!-- Generator: Adobe Illustrator 25.2.3, SVG Export Plug-In . SVG Version: 6.00 Build 0)  -->
<svg version="1.1" id="Layer_1" xmlns="http://www.w3.org/2000/svg" xmlns:xlink="http://www.w3.org/1999/xlink" x="0px" y="0px"
	 viewBox="0 0 512 512" style="enable-background:new 0 0 512 512;" xml:space="preserve">
<style type="text/css">
	.st0{fill:#FFFFFF;}
</style>
<path class="st0" d="M380.5,98.1c-14.1-6.5-10-19.5-9-22.1c1-2.6,6.5-15.1,21.4-10.6c0.4,0.1,0.8,0.2,1.2,0.4c8,2.5,16.5-1.4,19.9-9
	c3.4-7.6,0.7-16.5-6.4-20.9C281.5-41.2,152.5,13.2,98,131.5c-6.5,14.1-19.5,10-22.1,9c-2.6-1-15.1-6.5-10.6-21.4
	c0.1-0.4,0.2-0.8,0.4-1.2c2.5-8-1.4-16.5-9-19.9c-7.6-3.4-16.5-0.7-20.9,6.4C-41.8,231.5,14.2,360,131.5,414
	c14.1,6.5,10,19.5,9,22.1c-1,2.6-6.5,15.1-21.4,10.6c-0.4-0.1-0.8-0.2-1.2-0.4c-8-2.5-16.5,1.4-19.9,9c-3.4,7.6-0.7,16.5,6.4,20.9
	C230,552.8,359.2,499.4,414,380.5c6.5-14.1,19.5-10,22.1-9c2.6,1,15.1,6.5,10.6,21.4c-0.1,0.4-0.2,0.8-0.4,1.2
	c-2.5,8,1.4,16.5,9,19.9c7.6,3.4,16.6,0.7,20.9-6.4C553.9,280.4,497.6,152,380.5,98.1z M466.6,352.9c-23.6-24-66.4-21.3-82.6,13.8
	c-39.3,85.2-126.6,137.5-224.9,99.8c24-23.6,21.3-66.4-13.8-82.6C59.7,344.6,7.9,257.1,45.4,159.1c23.6,24,66.5,21.3,82.6-13.8
	C167.5,59.8,255,7.9,352.9,45.5c-24,23.6-21.3,66.4,13.8,82.6C452.4,167.5,504.1,255.1,466.6,352.9L466.6,352.9z M384,310.1
	c-2.7,6.3-8.8,10.1-15.2,10.1c-11.8,0-19.8-12.1-15.2-23c24.9-58.9-8-127.3-70.7-143.7c-8.8-2.3-14.1-11.3-11.8-20.2
	c2.3-8.8,11.3-14.1,20.2-11.8C373.4,143.1,416.8,232.6,384,310.1z M154,284.7c2.5,8.8-2.7,17.9-11.4,20.4
	c-8.8,2.5-17.9-2.7-20.4-11.4c-15.9-56.9,5.8-118.5,55.6-152.4c7.5-5.1,17.8-3.2,22.9,4.3c5.1,7.5,3.2,17.8-4.3,22.9
	C158.4,194.3,141.9,241.3,154,284.7L154,284.7z M318.2,362.8c3.5,8.4-0.5,18.1-8.9,21.6c-48.3,20.1-104.6,11.3-144.7-23.8
	c-6.9-6-7.6-16.4-1.6-23.3c6-6.9,16.4-7.6,23.3-1.6c30.5,26.7,73.4,33.4,110.3,18.1C305,350.4,314.7,354.4,318.2,362.8z M256,312.5
	c31.2,0,56.5-25.4,56.5-56.5s-25.4-56.5-56.5-56.5s-56.5,25.4-56.5,56.5S224.8,312.5,256,312.5L256,312.5z M256,232.5
	c12.9,0,23.5,10.5,23.5,23.5c0,12.9-10.5,23.5-23.5,23.5c-12.9,0-23.5-10.5-23.5-23.5C232.5,243.1,243,232.5,256,232.5L256,232.5z"
	/>
</svg>
