<?xml version="1.0" encoding="utf-8"?>
<!-- Generator: Adobe Illustrator 25.2.3, SVG Export Plug-In . SVG Version: 6.00 Build 0)  -->
<svg version="1.1" id="Layer_1" xmlns="http://www.w3.org/2000/svg" xmlns:xlink="http://www.w3.org/1999/xlink" x="0px" y="0px"
	 viewBox="0 0 512 512" style="enable-background:new 0 0 512 512;" xml:space="preserve">
<style type="text/css">
	.st0{fill:#FFFFFF;}
</style>
<path class="st0" d="M512,234.1c0,57.7-37,106.3-88.2,124.2l-72,106.9c-9.5,14.2-31.9,6.2-30.1-10.9l5.4-53h-31.9
	c-9.7,0-17.3-8.3-16.5-18l8.1-91.4c0.8-9.1,8.8-15.8,17.9-15c9.1,0.8,15.8,8.8,15,17.9l-6.5,73.5h32.1c9.8,0,17.4,8.5,16.4,18.2
	l-0.6,5.6l22.7-33.7H364c-10.7,0-18.6-10.1-16-20.5l11.3-46.1c2.2-8.9,11.1-14.3,20-12.1c8.9,2.2,14.3,11.1,12.1,20l-6.3,25.7
	c32.6,0,30.5-0.1,32.1,0.1c36.8-14.8,61.8-51.2,61.8-91.5c0-66.4-64.6-114-128.1-94.1c-9.4,3-19.4-3-21.2-12.8
	c-8.6-46.6-49.4-80.5-96.9-80.5c-54.4,0-98.6,44.2-98.6,98.6c0,5.8,2,19,3.3,25.9c2.1,11.4-7.9,21.4-19.3,19.2
	C73.7,182,33,216.3,33,260.9c0,31.1,19.6,57.8,47.8,67.7l4.9-55.7c0.8-9.1,8.8-15.8,17.9-15c9.1,0.8,15.8,8.8,15,17.9
	c-0.4,4.8,2.2-25.1-8.7,98.7h46c9.8,0,17.4,8.5,16.4,18.2l-2.6,25.3l43.9-65.1h-34c-10.7,0-18.6-10.1-16-20.5l14.5-58.8
	c2.2-8.9,11.1-14.3,20-12.1c8.9,2.2,14.3,11.1,12.1,20l-9.4,38.4h44c13.2,0,21.1,14.8,13.7,25.7L160.3,491
	c-9.5,14.2-31.9,6.2-30.1-10.9l7.4-72.6H91.9c-9.7,0-17.3-8.3-16.5-18l2.4-27.4C32.3,350.1,0,308.7,0,260.9
	c0-56.8,45.4-103.2,101.9-104.7C94,83.9,153.2,13.7,232.8,13.7c57.6,0,107.7,37.2,125.1,90.7C438.8,90.4,512,153,512,234.1
	L512,234.1z"/>
</svg>
