<?xml version="1.0" encoding="utf-8"?>
<!-- Generator: Adobe Illustrator 25.2.3, SVG Export Plug-In . SVG Version: 6.00 Build 0)  -->
<svg version="1.1" id="Layer_1" xmlns="http://www.w3.org/2000/svg" xmlns:xlink="http://www.w3.org/1999/xlink" x="0px" y="0px"
	 viewBox="0 0 512 512" style="enable-background:new 0 0 512 512;" xml:space="preserve">
<style type="text/css">
	.st0{fill:#FFFFFF;}
</style>
<path class="st0" d="M316.8,71.2c-44.9,0-85.8,24.2-107.7,62.6C136.9,121.4,76.4,182.2,81.7,247c-45.5,3-81.7,41-81.7,87.3
	c0,48.3,39.3,87.5,87.5,87.5h221.8c76,0,128.7-76.1,102.4-147C479.1,195.1,422.3,71.2,316.8,71.2z M316.8,104.3
	c71.7,0,114.9,79.5,76.9,139.4c-24.3-29.6-62.1-44.5-100.3-38.9c-9.3-26.3-28.2-47.5-52.2-60.1C257.9,119.7,286.1,104.3,316.8,104.3
	L316.8,104.3z M309.3,388.9H87.5c-30.1,0-54.5-24.5-54.5-54.5c0-34,30.9-59.9,64.7-53.6c11.4,2.1,21.4-7.8,19.3-19.2
	c-1.1-5.9-2.6-16.1-2.6-20.3c0-42,34.1-76.1,76.1-76.1c36.7,0,68.2,26.1,74.8,62.1c1.8,9.7,11.7,15.7,21.2,12.8
	c49-15.3,98.9,21.4,98.9,72.6C385.4,354.7,351.3,388.9,309.3,388.9L309.3,388.9z M512,195.1c0,9.1-7.4,16.5-16.5,16.5h-18.6
	c-9.1,0-16.5-7.4-16.5-16.5s7.4-16.5,16.5-16.5h18.6C504.6,178.6,512,186,512,195.1z M300.2,35.1V16.5c0-9.1,7.4-16.5,16.5-16.5
	s16.5,7.4,16.5,16.5v18.6c0,9.1-7.4,16.5-16.5,16.5S300.2,44.2,300.2,35.1z M454.8,57.1c6.5,6.4,6.5,16.9,0,23.4l-13.1,13.1
	c-3.2,3.2-7.5,4.8-11.7,4.8c-14.6,0-22.1-17.8-11.7-28.2l13.1-13.1C437.9,50.7,448.3,50.7,454.8,57.1L454.8,57.1z M178.8,80.6
	c-6.5-6.5-6.5-16.9,0-23.4c6.4-6.5,16.9-6.5,23.4,0l13.1,13.1c10.4,10.4,2.9,28.2-11.7,28.2c-4.2,0-8.5-1.6-11.7-4.8L178.8,80.6z
	 M78.5,455.2v10.3c0,9.1-7.4,16.5-16.5,16.5s-16.5-7.4-16.5-16.5v-10.3c0-9.1,7.4-16.5,16.5-16.5S78.5,446.1,78.5,455.2z
	 M150.7,455.2v40.3c0,9.1-7.4,16.5-16.5,16.5s-16.5-7.4-16.5-16.5v-40.3c0-9.1,7.4-16.5,16.5-16.5S150.7,446.1,150.7,455.2z
	 M223,455.2v10.3c0,9.1-7.4,16.5-16.5,16.5c-9.1,0-16.5-7.4-16.5-16.5v-10.3c0-9.1,7.4-16.5,16.5-16.5
	C215.6,438.7,223,446.1,223,455.2z M295.2,455.2v40.3c0,9.1-7.4,16.5-16.5,16.5c-9.1,0-16.5-7.4-16.5-16.5v-40.3
	c0-9.1,7.4-16.5,16.5-16.5C287.8,438.7,295.2,446.1,295.2,455.2z M367.5,455.2v10.3c0,9.1-7.4,16.5-16.5,16.5s-16.5-7.4-16.5-16.5
	v-10.3c0-9.1,7.4-16.5,16.5-16.5S367.5,446.1,367.5,455.2z"/>
</svg>
