<?xml version="1.0" encoding="utf-8"?>
<!-- Generator: Adobe Illustrator 25.2.3, SVG Export Plug-In . SVG Version: 6.00 Build 0)  -->
<svg version="1.1" id="Layer_1" xmlns="http://www.w3.org/2000/svg" xmlns:xlink="http://www.w3.org/1999/xlink" x="0px" y="0px"
	 viewBox="0 0 512 512" style="enable-background:new 0 0 512 512;" xml:space="preserve">
<style type="text/css">
	.st0{fill:#FFFFFF;}
</style>
<path class="st0" d="M81.3,455.2v10.3c0,9.1-7.4,16.5-16.5,16.5s-16.5-7.4-16.5-16.5v-10.3c0-9.1,7.4-16.5,16.5-16.5
	S81.3,446.1,81.3,455.2z M137,438.7c-9.1,0-16.5,7.4-16.5,16.5v40.3c0,9.1,7.4,16.5,16.5,16.5c9.1,0,16.5-7.4,16.5-16.5v-40.3
	C153.5,446.1,146.1,438.7,137,438.7z M209.3,438.7c-9.1,0-16.5,7.4-16.5,16.5v10.3c0,9.1,7.4,16.5,16.5,16.5
	c9.1,0,16.5-7.4,16.5-16.5v-10.3C225.8,446.1,218.4,438.7,209.3,438.7z M281.5,438.7c-9.1,0-16.5,7.4-16.5,16.5v40.3
	c0,9.1,7.4,16.5,16.5,16.5c9.1,0,16.5-7.4,16.5-16.5v-40.3C298,446.1,290.6,438.7,281.5,438.7z M353.7,438.7
	c-9.1,0-16.5,7.4-16.5,16.5v10.3c0,9.1,7.4,16.5,16.5,16.5s16.5-7.4,16.5-16.5v-10.3C370.3,446.1,362.9,438.7,353.7,438.7z
	 M508.5,218.4c-12.7,46-44.4,85.5-88.1,107.7c-6.6,53.9-52.7,95.8-108.3,95.8H90.4c-48.3,0-87.5-39.3-87.5-87.5
	c0-46.3,36.1-84.3,81.7-87.3c-4.2-50.7,33.2-103.2,89.9-113.2C197.6,32.4,305.5-25.7,403.1,11.1c12,4.5,14.5,20.4,4.5,28.4
	c-21.8,17.3-34.2,43.2-34.2,71c0,59.6,56.9,103.5,114.9,87.6C500.6,194.7,511.9,206.1,508.5,218.4z M388.2,312.8
	c0-42-34.1-76.1-76.1-76.1c-21.6,0-25.8,8.1-36.2,1.9c-4-2.4-6.9-6.5-7.7-11.1c-6.7-36-38.1-62.1-74.8-62.1
	c-42,0-76.1,34.1-76.1,76.1c0,4.2,1.5,14.4,2.6,20.3c2.1,11.4-7.9,21.3-19.3,19.2c-33.8-6.4-64.7,19.6-64.7,53.5
	c0,30,24.4,54.5,54.5,54.5h221.7C354.1,388.9,388.2,354.8,388.2,312.8z M467.2,234.3c-104.7,2.5-163.9-118-101.3-199.2
	C294.8,23,228,67.5,208.6,133.4c40.2,5.7,74.1,33.3,87.6,71.5c57.3-8.4,110.2,29.3,122.4,84.2C439.3,275.4,456.2,256.4,467.2,234.3z
	"/>
</svg>
