<?xml version="1.0" encoding="utf-8"?>
<!-- Generator: Adobe Illustrator 25.2.3, SVG Export Plug-In . SVG Version: 6.00 Build 0)  -->
<svg version="1.1" id="Layer_1" xmlns="http://www.w3.org/2000/svg" xmlns:xlink="http://www.w3.org/1999/xlink" x="0px" y="0px"
	 viewBox="0 0 512 512" style="enable-background:new 0 0 512 512;" xml:space="preserve">
<style type="text/css">
	.st0{fill:#FFFFFF;}
</style>
<path class="st0" d="M479.5,315.5c-2.4-8.8-11.4-14-20.2-11.7l-59.7,16l-32.1-18.5v-90.6l32.1-18.5c64.9,17.4,60.9,16.6,64,16.6
	c7.3,0,14-4.9,15.9-12.2c2.4-8.8-2.9-17.9-11.7-20.2l-27.8-7.4l31.6-18.3c7.9-4.6,10.6-14.7,6-22.6c-4.6-7.9-14.7-10.6-22.6-6
	l-31.6,18.3l7.4-27.8c2.4-8.8-2.9-17.9-11.7-20.2c-8.8-2.4-17.9,2.9-20.2,11.7l-16,59.7L351,182.1l-78.5-45.3V99.7l43.7-43.7
	c6.5-6.4,6.5-16.9,0-23.4c-6.4-6.5-16.9-6.5-23.4,0L272.5,53V16.5C272.5,7.4,265.1,0,256,0c-9.1,0-16.5,7.4-16.5,16.5V53l-20.3-20.3
	c-6.4-6.5-16.9-6.5-23.4,0c-6.5,6.4-6.5,16.9,0,23.4l43.7,43.7v37.1L161,182.1l-32.1-18.5l-16-59.7c-2.4-8.8-11.4-14-20.2-11.7
	c-8.8,2.4-14,11.4-11.7,20.2l7.4,27.8L56.9,122c-7.9-4.6-18-1.9-22.6,6c-4.6,7.9-1.9,18,6,22.6L72,168.8l-27.8,7.4
	c-8.8,2.4-14,11.4-11.7,20.2c2.4,8.8,11.4,14,20.2,11.7l59.7-16l32.1,18.5v90.6l-32.1,18.5l-59.7-16c-8.8-2.4-17.9,2.9-20.2,11.7
	c-2.4,8.8,2.9,17.9,11.7,20.2l27.8,7.4l-31.6,18.3c-14.6,8.4-8.6,30.8,8.3,30.8c5.9,0,5.9-0.8,39.9-20.5L81,399.5
	c-2.8,10.5,5.1,20.8,16,20.8c7.3,0,14-4.9,15.9-12.2l16-59.7l32.1-18.5l78.5,45.3v37.1l-43.7,43.7c-6.5,6.4-6.5,16.9,0,23.4
	c6.4,6.5,16.9,6.5,23.4,0l20.3-20.3v36.5c0,9.1,7.4,16.5,16.5,16.5s16.5-7.4,16.5-16.5V459l20.3,20.3c6.4,6.4,16.9,6.5,23.4,0
	c6.5-6.4,6.5-16.9,0-23.4l-43.7-43.7v-37.1l78.5-45.3l32.1,18.5l16,59.7c2,7.4,8.7,12.2,15.9,12.2c10.9,0,18.8-10.3,16-20.8
	l-7.4-27.8l31.6,18.3c7.9,4.6,18,1.9,22.6-6c4.6-7.9,1.9-18-6-22.6L440,343.2l27.8-7.4C476.6,333.4,481.8,324.3,479.5,315.5
	L479.5,315.5z M334.5,282.2L289,256l45.4-26.2V282.2z M317.9,201.2l-45.4,26.2v-52.4L317.9,201.2z M239.5,174.9v52.4l-45.4-26.2
	L239.5,174.9z M177.5,229.8L223,256l-45.4,26.2V229.8z M194.1,310.8l45.4-26.2v52.4L194.1,310.8z M272.5,337.1v-52.4l45.4,26.2
	L272.5,337.1z"/>
</svg>
