<?xml version="1.0" encoding="utf-8"?>
<!-- Generator: Adobe Illustrator 25.2.3, SVG Export Plug-In . SVG Version: 6.00 Build 0)  -->
<svg version="1.1" id="Layer_1" xmlns="http://www.w3.org/2000/svg" xmlns:xlink="http://www.w3.org/1999/xlink" x="0px" y="0px"
	 viewBox="0 0 512 512" style="enable-background:new 0 0 512 512;" xml:space="preserve">
<style type="text/css">
	.st0{fill:#FFFFFF;}
</style>
<path class="st0" d="M316.8,71.2c-44.9,0-85.8,24.2-107.7,62.6C136.9,121.4,76.4,182.2,81.7,247C36.1,250,0,288.1,0,334.4
	c0,48.3,39.3,87.5,87.5,87.5h221.8c76,0,128.6-76.1,102.4-147C479.1,195.1,422.3,71.2,316.8,71.2L316.8,71.2z M316.8,104.3
	c71.7,0,114.9,79.5,76.9,139.4c-24.3-29.6-62.1-44.5-100.3-38.9c-9.3-26.3-28.2-47.5-52.2-60.1C257.9,119.7,286.1,104.3,316.8,104.3
	L316.8,104.3z M309.3,388.9H87.5c-30.1,0-54.5-24.5-54.5-54.5c0-34,30.9-59.9,64.7-53.6c11.4,2.1,21.4-7.8,19.3-19.2
	c-1.1-5.9-2.6-16.1-2.6-20.3c0-42,34.1-76.1,76.1-76.1c36.7,0,68.2,26.1,74.8,62.1c0.9,4.6,3.7,8.7,7.7,11.1
	c10.4,6.2,14.7-1.9,36.2-1.9c42,0,76.1,34.1,76.1,76.1C385.4,354.7,351.3,388.9,309.3,388.9L309.3,388.9z M512,195.1
	c0,9.1-7.4,16.5-16.5,16.5h-18.6c-9.1,0-16.5-7.4-16.5-16.5c0-9.1,7.4-16.5,16.5-16.5h18.6C504.6,178.6,512,186,512,195.1z
	 M300.2,35.1V16.5c0-9.1,7.4-16.5,16.5-16.5c9.1,0,16.5,7.4,16.5,16.5v18.6c0,9.1-7.4,16.5-16.5,16.5
	C307.6,51.6,300.2,44.2,300.2,35.1z M454.8,57.1c6.5,6.4,6.5,16.9,0,23.4l-13.1,13.1c-6.4,6.4-16.9,6.5-23.4,0
	c-6.5-6.4-6.5-16.9,0-23.4l13.1-13.1C437.9,50.7,448.3,50.7,454.8,57.1z M178.8,80.6c-6.5-6.5-6.5-16.9,0-23.4
	c6.4-6.5,16.9-6.5,23.4,0l13.1,13.1c10.4,10.4,2.9,28.2-11.7,28.2c-4.2,0-8.5-1.6-11.7-4.8L178.8,80.6z M65.2,511.7
	c-8.7,1.7-17.4-3.6-19.4-13c-1.7-8.7,3.5-17.4,13-19.4c8.6-1.7,17.4,3.5,19.4,13C79.8,501,74.5,509.6,65.2,511.7z M100.3,468.3
	c-8.7,1.7-17.4-3.6-19.4-13c-1.6-8.5,3.4-17.4,13-19.4c8.6-1.7,17.4,3.5,19.4,13C114.9,457.5,109.8,466.3,100.3,468.3z M160.1,465.8
	c-7.4-4.9-9.7-15.3-4.6-22.9c7.8-11.9,26.7-8.9,29.9,5.9C188.3,463.7,172,473.8,160.1,465.8L160.1,465.8z M244.8,468.3
	c-8.7,1.7-17.4-3.6-19.4-13c-1.7-8.7,3.6-17.4,13-19.4c8.7-1.7,17.4,3.6,19.4,13C259.4,457.4,254.3,466.3,244.8,468.3z M303.3,464.9
	c-6.9-5.7-8.2-15.9-2.3-23.2c8.6-10.4,25.9-6.9,29,7.2C333,464.2,315.4,474.6,303.3,464.9z M137.4,511.7c-8.7,1.7-17.4-3.6-19.4-13
	c-1.7-8.7,3.5-17.4,13-19.4c8.6-1.7,17.4,3.5,19.4,13C152.1,500.9,146.8,509.6,137.4,511.7z M197.3,509.2
	c-7.4-4.9-9.7-15.3-4.6-22.9c7.7-11.7,26.7-9.1,29.9,5.9C225.5,507,209.2,517.2,197.3,509.2L197.3,509.2z M281.9,511.7
	c-8.7,1.7-17.4-3.5-19.4-13c-1.7-8.6,3.5-17.4,13-19.4c8.6-1.7,17.4,3.5,19.4,13C296.7,501.6,290.5,510,281.9,511.7z M347.7,511.7
	c-14.7-3.2-18-22-5.9-29.9c9.2-6.2,22.7-1.7,25.4,10.5C369.4,503.8,359.3,513.9,347.7,511.7L347.7,511.7z"/>
</svg>
