<?xml version="1.0" encoding="utf-8"?>
<!-- Generator: Adobe Illustrator 25.2.3, SVG Export Plug-In . SVG Version: 6.00 Build 0)  -->
<svg version="1.1" id="Layer_1" xmlns="http://www.w3.org/2000/svg" xmlns:xlink="http://www.w3.org/1999/xlink" x="0px" y="0px"
	 viewBox="0 0 512 512" style="enable-background:new 0 0 512 512;" xml:space="preserve">
<style type="text/css">
	.st0{fill:#FFFFFF;}
</style>
<path class="st0" d="M68,511.7c-9.3,1.8-17.7-4.4-19.4-13c-1.7-8.7,3.5-17.4,13-19.4c8.6-1.7,17.4,3.5,19.4,13
	C82.7,500.9,77.4,509.6,68,511.7z M103.1,435.9c-15.4-3-25.7,14.9-16,26.7c5.9,7.3,17.3,8.3,24.4,1.2
	C120.5,454.8,116.6,438.8,103.1,435.9z M158.4,443c-7.3,10.8,0.5,25.7,13.7,25.7c9.6,0,17.4-8.3,16.4-18.1
	C187.1,435,166.8,430.2,158.4,443z M231.6,441.6c-5.9,7.4-4.5,17.7,2.3,23.2c11.2,9.2,28.3,0.4,26.9-14.4
	C259.4,436,241,430.3,231.6,441.6z M313.4,435.9c-14.2,3-17.6,20.6-7.2,29c11.2,9.3,28.3,0.3,26.9-14.4
	C332.1,441,323.2,434,313.4,435.9L313.4,435.9z M133.8,479.3c-9.4,2-14.6,10.7-13,19.4c2,9.5,10.8,14.6,19.4,13
	c8.9-1.9,14-9.8,13.2-17.8C152.5,484.4,143.6,477.4,133.8,479.3z M196.5,485c-5.9,7.3-4.6,17.6,2.3,23.2
	c11.6,9.4,28.3,0.1,26.9-14.4C224.3,479.4,205.9,473.6,196.5,485L196.5,485z M284.7,479.3c-15.4-3-25.7,14.9-16,26.7
	c6.4,8,19,8.1,25.5,0C301.9,496.7,297.5,482,284.7,479.3z M350.5,479.3c-9.3,2-14.6,10.6-13,19.4c2.1,9.5,10.8,14.6,19.4,13
	c8.9-1.9,14-9.8,13.2-17.8C369.3,484.3,360.3,477.4,350.5,479.3z M508.5,218.4c-12.7,46-44.4,85.5-88.1,107.7
	c-6.6,53.9-52.6,95.8-108.3,95.8H90.4c-48.3,0-87.5-39.3-87.5-87.5c0-46.3,36.1-84.3,81.7-87.3c-4.2-50.7,33.2-103.2,89.9-113.1
	C197.6,32.3,305.6-25.7,403.1,11.1c12,4.5,14.5,20.4,4.5,28.4c-21.8,17.3-34.2,43.2-34.2,71c0,59.6,56.9,103.5,114.9,87.6
	C500.6,194.7,511.9,206.1,508.5,218.4L508.5,218.4z M388.2,312.8c0-51.1-49.8-88-98.9-72.6c-9.4,3-19.4-3-21.2-12.8
	c-6.7-36-38.1-62.1-74.8-62.1c-42,0-76.1,34.1-76.1,76.1c0,4.2,1.5,14.4,2.6,20.3c2.1,11.4-7.9,21.3-19.3,19.2
	c-33.8-6.4-64.7,19.6-64.7,53.5c0,30,24.4,54.5,54.5,54.5h221.7C354.1,388.9,388.2,354.7,388.2,312.8z M467.2,234.3
	c-104.4,2.6-164.1-117.7-101.3-199.2C294.7,23,228,67.6,208.6,133.3c40.2,5.7,74.1,33.3,87.6,71.5c57.2-8.4,110.1,29.2,122.4,84.2
	C439.3,275.4,456.2,256.4,467.2,234.3L467.2,234.3z"/>
</svg>
