<?xml version="1.0" encoding="utf-8"?>
<!-- Generator: Adobe Illustrator 25.2.3, SVG Export Plug-In . SVG Version: 6.00 Build 0)  -->
<svg version="1.1" id="Layer_1" xmlns="http://www.w3.org/2000/svg" xmlns:xlink="http://www.w3.org/1999/xlink" x="0px" y="0px"
	 viewBox="0 0 512 512" style="enable-background:new 0 0 512 512;" xml:space="preserve">
<style type="text/css">
	.st0{fill:#FFFFFF;}
</style>
<path class="st0" d="M357.9,101.3c-17.4-53.5-67.5-90.7-125.1-90.7c-79.6,0-138.8,70.2-130.9,142.5C45.4,154.6,0,201,0,257.8
	c0,47.7,32.2,89.1,77.8,101.2l-2.4,27.4c-0.9,9.7,6.8,18,16.5,18h45.7l-7.4,72.6c-1.7,17,20.6,25.1,30.1,10.9l84.5-125.4h135.6
	c72.6,0,131.6-59,131.6-131.6C512,149.8,438.7,87.3,357.9,101.3L357.9,101.3z M380.4,329.5H260.8c-1.7-7.5-8.4-12.9-16.1-12.9h-44
	l9.4-38.4c2.2-8.9-3.2-17.8-12.1-20c-8.9-2.2-17.8,3.2-20,12.1l-14.5,58.8c-2.6,10.4,5.3,20.5,16,20.5h34l-43.9,65.1l2.6-25.3
	c1-9.7-6.7-18.2-16.4-18.2h-46c1.2-13.1,7.7-86.8,8.7-98.7c0.8-9.1-5.9-17.1-15-17.9c-9.1-0.8-17.1,5.9-17.9,15l-4.9,55.7
	C52.7,315.6,33,288.9,33,257.8c0-44.7,40.7-78.9,85.1-70.5c11.4,2.1,21.4-7.8,19.3-19.2c-1.3-7-3.3-20.1-3.3-25.9
	c0-54.4,44.2-98.6,98.6-98.6c47.5,0,88.3,33.9,96.9,80.5c1.8,9.7,11.7,15.7,21.2,12.8C414.3,117,479,164.6,479,231
	C479,285.3,434.7,329.5,380.4,329.5L380.4,329.5z M318.3,407.4l-10.3,15.5c-5.1,7.6-15.3,9.6-22.9,4.6c-7.6-5.1-9.6-15.3-4.6-22.9
	l10.3-15.5c5.1-7.6,15.3-9.6,22.9-4.6C321.3,389.5,323.3,399.8,318.3,407.4z M281,465.3l-19.6,28.9c-5.1,7.5-15.4,9.5-22.9,4.4
	c-7.5-5.1-9.5-15.4-4.4-22.9l19.6-28.9c5.1-7.5,15.4-9.5,22.9-4.4C284.2,447.5,286.1,457.7,281,465.3L281,465.3z M411.2,407.4
	l-10.3,15.5c-5.1,7.6-15.3,9.6-22.9,4.6c-7.6-5.1-9.6-15.3-4.6-22.9l10.3-15.5c5.1-7.6,15.3-9.6,22.9-4.6
	C414.2,389.5,416.2,399.8,411.2,407.4z M373.9,465.3l-19.6,28.9c-5.1,7.5-15.4,9.5-22.9,4.4c-7.5-5.1-9.5-15.4-4.4-22.9l19.6-28.9
	c5.1-7.5,15.4-9.5,22.9-4.4C377.1,447.5,379,457.7,373.9,465.3z"/>
</svg>
