<?xml version="1.0" encoding="utf-8"?>
<!-- Generator: Adobe Illustrator 25.2.3, SVG Export Plug-In . SVG Version: 6.00 Build 0)  -->
<svg version="1.1" id="Layer_1" xmlns="http://www.w3.org/2000/svg" xmlns:xlink="http://www.w3.org/1999/xlink" x="0px" y="0px"
	 viewBox="0 0 512 512" style="enable-background:new 0 0 512 512;" xml:space="preserve">
<style type="text/css">
	.st0{fill:#FFFFFF;}
</style>
<path class="st0" d="M266,143.6l3-8.5c3-8.6-1.5-18-10.1-21c-8.6-3-18,1.5-21,10.1l-3,8.5C133.7,107.3,29.3,172.6,10.5,278.2
	c-2.2,12.6,10,22.8,22,18.4c21.7-8.1,46.7,1.1,57.6,22.6c10.5,20.6,35.1,29.3,56.2,19.6c5.8-2.6,11.9-4,18.1-4.2L116.9,470
	c-2.4,7-10.1,10.7-17.1,8.2c-7-2.4-10.7-10.1-8.2-17.1l5.8-16.6c3-8.6-1.5-18-10.1-21c-8.6-3-18,1.5-21,10.1l-5.8,16.6
	c-8.5,24.2,4.3,50.7,28.5,59.2c24.2,8.5,50.7-4.3,59.2-28.5l47.4-135.5c4.7,4,8.6,8.9,11.5,14.5c10.5,20.6,35.1,29.3,56.2,19.6
	c21.8-10,47.1-1.6,59.1,18.2c6.6,10.9,22.6,10.6,28.7-0.6C401.6,303.6,362.2,187.2,266,143.6L266,143.6z M49.1,260.6
	c23-65.9,88.5-106.2,156-99.7c-43.4,34.8-74.7,80.4-92.3,132.2C97.6,272.3,73.7,260.8,49.1,260.6z M143.8,304.5
	c17.2-51.2,49.2-94.7,92.5-125.8c14.4,51.3,12.4,105.3-6.1,156C210.8,307.5,176,295.3,143.8,304.5L143.8,304.5z M331.6,359.4
	c-19.3-15.2-45.2-21.1-70-14.2c18.7-51.9,22.3-107.2,10.2-160.9C329.6,221.7,354.5,293.9,331.6,359.4z M88.7,81.5L97,55.7
	c2.8-8.7,12.1-13.5,20.8-10.7c8.7,2.8,13.5,12.1,10.7,20.8l-8.3,25.8c-2.8,8.7-12.1,13.5-20.8,10.7C90.7,99.5,85.9,90.2,88.7,81.5z
	 M191.9,71.1l13.4-41.3c2.8-8.7,12.1-13.4,20.8-10.6c8.7,2.8,13.4,12.1,10.6,20.8l-13.4,41.3c-2.8,8.7-12.1,13.4-20.8,10.6
	C193.9,89.1,189.1,79.8,191.9,71.1z M288.2,66.1l21.5-55.6C313,2,322.6-2.2,331.1,1.1c8.5,3.3,12.7,12.9,9.4,21.4L319,78
	c-3.3,8.5-12.8,12.7-21.4,9.4C289.2,84.2,284.9,74.6,288.2,66.1z M384.5,121.6l-11.8,30.7c-3.3,8.5-12.8,12.8-21.3,9.5
	c-8.5-3.3-12.8-12.8-9.5-21.3l11.8-30.7c3.3-8.5,12.8-12.8,21.3-9.5C383.5,103.6,387.7,113.1,384.5,121.6L384.5,121.6z M392.8,51.2
	l3.7-9.8c3.3-8.5,12.8-12.8,21.3-9.5c8.5,3.3,12.8,12.8,9.5,21.3l-3.7,9.8c-3.3,8.5-12.8,12.8-21.3,9.5
	C393.8,69.2,389.5,59.7,392.8,51.2z M445.1,182.9l-19.6,54.7c-3.1,8.6-12.5,13-21.1,10c-8.6-3.1-13-12.5-10-21.1l19.6-54.7
	c3.1-8.6,12.5-13,21.1-10C443.7,164.9,448.1,174.3,445.1,182.9z M500.8,88l-14.4,40.2c-2.4,6.7-8.8,10.9-15.5,10.9
	c-11.4,0-19.4-11.3-15.5-22.1l14.4-40.2c3.1-8.6,12.5-13,21.1-10C499.4,69.9,503.9,79.4,500.8,88z"/>
</svg>
