<?xml version="1.0" encoding="utf-8"?>
<!-- Generator: Adobe Illustrator 25.2.3, SVG Export Plug-In . SVG Version: 6.00 Build 0)  -->
<svg version="1.1" id="Layer_1" xmlns="http://www.w3.org/2000/svg" xmlns:xlink="http://www.w3.org/1999/xlink" x="0px" y="0px"
	 viewBox="0 0 512 512" style="enable-background:new 0 0 512 512;" xml:space="preserve">
<style type="text/css">
	.st0{fill:#FFFFFF;}
</style>
<path class="st0" d="M289.8,366.5c0,23.9-19.4,43.3-43.3,43.3h-32c-9.1,0-16.5-7.4-16.5-16.5c0-9.1,7.4-16.5,16.5-16.5h32
	c5.7,0,10.3-4.6,10.3-10.3c0-5.7-4.6-10.3-10.3-10.3h-11.4c-9.1,0-16.5-7.4-16.5-16.5c0-9.1,7.4-16.5,16.5-16.5h11.4
	C270.3,323.1,289.8,342.6,289.8,366.5z M215.5,425.3H111.2c-9.1,0-16.5,7.4-16.5,16.5c0,9.1,7.4,16.5,16.5,16.5h104.2
	c5.7,0,10.3,4.6,10.3,10.3c0,5.7-4.6,10.3-10.3,10.3h-11.4c-9.1,0-16.5,7.4-16.5,16.5c0,9.1,7.4,16.5,16.5,16.5h11.4
	c23.9,0,43.3-19.4,43.3-43.3S239.4,425.3,215.5,425.3z M508.6,218.4c-12.4,44.8-43.3,84.9-88,107.7c-6.3,54.2-52.5,96.5-108.4,96.5
	c-9.1,0-16.5-7.4-16.5-16.5c0-9.1,7.4-16.5,16.5-16.5c42,0,76.1-34.1,76.1-76.1c0-51.1-49.8-88-98.9-72.6c-9.4,3-19.4-3-21.2-12.8
	c-6.7-36-38.1-62.1-74.8-62.1c-42,0-76.1,34.1-76.1,76.1c0,4.2,1.5,14.4,2.6,20.3c2.1,11.4-7.9,21.3-19.3,19.2
	c-33.8-6.4-64.7,19.6-64.7,53.6c0,16.2,7.2,31.4,19.5,41.7h77.5c5.7,0,10.3-4.6,10.3-10.3c0-5.7-4.6-10.3-10.3-10.3h-11.4
	c-9.1,0-16.5-7.4-16.5-16.5c0-9.1,7.4-16.5,16.5-16.5h11.4c23.9,0,43.3,19.4,43.3,43.3s-19.4,43.3-43.3,43.3c-10.8,0-93.9,0-104.2,0
	c-14.4,0-21.9-17.2-12.1-27.7c-35.7-56.1,1.9-130,67.9-134.4c-4.1-50.6,33.1-103.1,89.7-113.1C197.2,32.5,305.6-25.7,403.2,11.1
	c12,4.5,14.5,20.4,4.5,28.4c-21.8,17.3-34.2,43.2-34.2,71c0,59.6,56.9,103.5,114.9,87.6C500.6,194.7,512,206.1,508.6,218.4
	L508.6,218.4z M467.2,234.3c-104.5,2.6-164.1-117.7-101.3-199.3C294.1,22.9,227.5,68.3,208.5,134c40.3,5.6,74.2,33.3,87.7,71.5
	c57.5-8.4,109.9,29.4,122.3,83.6C439.2,275.5,456.2,256.5,467.2,234.3z"/>
</svg>
