<?xml version="1.0" encoding="utf-8"?>
<!-- Generator: Adobe Illustrator 25.2.3, SVG Export Plug-In . SVG Version: 6.00 Build 0)  -->
<svg version="1.1" id="Layer_1" xmlns="http://www.w3.org/2000/svg" xmlns:xlink="http://www.w3.org/1999/xlink" x="0px" y="0px"
	 viewBox="0 0 512 512" style="enable-background:new 0 0 512 512;" xml:space="preserve">
<style type="text/css">
	.st0{fill:#FFFFFF;}
</style>
<path class="st0" d="M316.8,71.6c-44.9,0-85.8,24.2-107.7,62.6c-72.2-12.4-132.7,48.4-127.4,113.2c-66,4.4-103.6,78.3-67.9,134.4
	c-9.8,10.5-2.3,27.7,12.1,27.7h104.2c23.9,0,43.4-19.4,43.4-43.4s-19.4-43.4-43.4-43.4h-11.4c-9.1,0-16.5,7.4-16.5,16.5
	s7.4,16.5,16.5,16.5h11.4c5.7,0,10.3,4.6,10.3,10.3s-4.6,10.3-10.3,10.3H52.6c-12.3-10.3-19.5-25.6-19.5-41.7
	c0-34,30.9-59.9,64.7-53.6c11.4,2.2,21.4-7.8,19.3-19.2c-1.1-5.9-2.6-16.1-2.6-20.3c0-42,34.1-76.1,76.1-76.1
	c36.7,0,68.2,26.1,74.8,62.1c0.9,4.6,3.7,8.7,7.7,11.1c10.4,6.3,14.6-1.9,36.2-1.9c42,0,76.1,34.1,76.1,76.1s-34.1,76.1-76.1,76.1
	c-9.1,0-16.5,7.4-16.5,16.5s7.4,16.5,16.5,16.5c76,0,128.6-76.1,102.4-147C479.1,195.5,422.3,71.6,316.8,71.6L316.8,71.6z
	 M293.4,205.1c-9.3-26.3-28.2-47.5-52.2-60.1c16.7-25,44.9-40.4,75.6-40.4c71.7,0,114.9,79.5,76.9,139.4
	C369.5,214.4,331.7,199.5,293.4,205.1L293.4,205.1z M512,195.4c0,9.1-7.4,16.5-16.5,16.5h-18.6c-9.1,0-16.5-7.4-16.5-16.5
	s7.4-16.5,16.5-16.5h18.6C504.6,178.9,512,186.3,512,195.4z M300.2,35.4V16.9c0-9.1,7.4-16.5,16.5-16.5s16.5,7.4,16.5,16.5v18.6
	c0,9.1-7.4,16.5-16.5,16.5S300.2,44.6,300.2,35.4z M454.8,57.5c6.5,6.4,6.5,16.9,0,23.4l-13.1,13.1c-3.2,3.2-7.5,4.8-11.7,4.8
	c-14.6,0-22.1-17.8-11.7-28.2l13.1-13.1C437.9,51,448.3,51,454.8,57.5L454.8,57.5z M178.8,80.9c-6.5-6.5-6.4-16.9,0-23.4
	c6.5-6.4,16.9-6.4,23.4,0l13.1,13.1c10.4,10.4,2.9,28.2-11.7,28.2c-4.2,0-8.5-1.6-11.7-4.8L178.8,80.9z M287,366.1
	c0,23.9-19.4,43.4-43.4,43.4h-32c-9.1,0-16.5-7.4-16.5-16.5s7.4-16.5,16.5-16.5h32c5.7,0,10.3-4.6,10.3-10.3s-4.6-10.3-10.3-10.3
	h-11.4c-9.1,0-16.5-7.4-16.5-16.5s7.4-16.5,16.5-16.5h11.4C267.5,322.8,287,342.2,287,366.1z M256,468.3c0,23.9-19.4,43.4-43.4,43.4
	h-11.4c-9.1,0-16.5-7.4-16.5-16.5s7.4-16.5,16.5-16.5h11.4c5.7,0,10.3-4.6,10.3-10.3s-4.6-10.3-10.3-10.3H108.4
	c-9.1,0-16.5-7.4-16.5-16.5s7.4-16.5,16.5-16.5h104.2C236.6,424.9,256,444.4,256,468.3z"/>
</svg>
