<?xml version="1.0" encoding="utf-8"?>
<!-- Generator: Adobe Illustrator 25.2.3, SVG Export Plug-In . SVG Version: 6.00 Build 0)  -->
<svg version="1.1" id="Layer_1" xmlns="http://www.w3.org/2000/svg" xmlns:xlink="http://www.w3.org/1999/xlink" x="0px" y="0px"
	 viewBox="0 0 512 512" style="enable-background:new 0 0 512 512;" xml:space="preserve">
<style type="text/css">
	.st0{fill:#FFFFFF;}
</style>
<path class="st0" d="M121,409.8H16.8c-9.1,0-16.5-7.4-16.5-16.5c0-9.1,7.4-16.5,16.5-16.5H121c5.7,0,10.3-4.6,10.3-10.3
	s-4.6-10.3-10.3-10.3h-11.4c-9.1,0-16.5-7.4-16.5-16.5s7.4-16.5,16.5-16.5H121c23.9,0,43.3,19.4,43.3,43.3
	C164.3,390.4,144.9,409.8,121,409.8z M234.5,323.2h-11.4c-9.1,0-16.5,7.4-16.5,16.5s7.4,16.5,16.5,16.5h11.4
	c5.7,0,10.3,4.6,10.3,10.3s-4.6,10.3-10.3,10.3h-32c-9.1,0-16.5,7.4-16.5,16.5c0,9.1,7.4,16.5,16.5,16.5h32
	c23.9,0,43.3-19.4,43.3-43.3C277.8,342.6,258.4,323.2,234.5,323.2z M203.5,425.3H99.3c-9.1,0-16.5,7.4-16.5,16.5
	c0,9.1,7.4,16.5,16.5,16.5h104.2c5.7,0,10.3,4.6,10.3,10.3s-4.6,10.3-10.3,10.3h-11.4c-9.1,0-16.5,7.4-16.5,16.5s7.4,16.5,16.5,16.5
	h11.4c23.9,0,43.3-19.4,43.3-43.3S227.4,425.3,203.5,425.3z M511.2,205.9c-19.2,70.7-83.8,120-157.2,120
	c-89.8,0-162.9-73.1-162.9-162.9c0-113.6,114.1-192.6,220.6-152.5c12,4.5,14.5,20.4,4.5,28.4c-20.1,16-31.7,40-31.7,65.7
	c0,46.3,37.7,84,84,84c19.5,0,22.4-5.3,31.1-3C508.4,188,513.6,197.1,511.2,205.9L511.2,205.9z M469.9,221.6
	c-97.7,1.2-152.3-110.5-95.4-186.8c-80.1-12.4-150.4,49.4-150.4,128.3c0,71.6,58.2,129.8,129.8,129.8
	C403.6,292.9,448.2,264.6,469.9,221.6L469.9,221.6z"/>
</svg>
