<?xml version="1.0" encoding="utf-8"?>
<!-- Generator: Adobe Illustrator 25.2.1, SVG Export Plug-In . SVG Version: 6.00 Build 0)  -->
<svg version="1.1" id="Layer_1" xmlns="http://www.w3.org/2000/svg" xmlns:xlink="http://www.w3.org/1999/xlink" x="0px" y="0px"
	 viewBox="0 0 512 512" style="enable-background:new 0 0 512 512;" xml:space="preserve">
<style type="text/css">
	.st0{fill:#222222;}
</style>
<g>
	<g>
		<path class="st0" d="M511.6,118.4L373.5,256l138,137.5C512.3,383.9,512,122.9,511.6,118.4z"/>
	</g>
</g>
<g>
	<g>
		<path class="st0" d="M461.9,72.4H50.1c-13.4,0-25.7,5.3-34.7,13.9c93.8,93.5,142.9,142.3,228.8,227.9c6.5,6.5,17.1,6.5,23.6,0
			c86.4-86.1,143-142.5,228.7-227.8C487.4,77.6,475.2,72.4,461.9,72.4z"/>
	</g>
</g>
<g>
	<g>
		<path class="st0" d="M0.4,118.5C0,123.1-0.3,384,0.5,393.5l138.3-137.3L0.4,118.5z"/>
	</g>
</g>
<g>
	<g>
		<path class="st0" d="M349.9,279.6l-58.5,58.3c-19.5,19.5-51.2,19.6-70.8,0l-58.2-58L15.5,425.6c9,8.6,21.2,14,34.6,14h411.7
			c13.4,0,25.6-5.4,34.6-14L349.9,279.6z"/>
	</g>
</g>
</svg>
