<?xml version="1.0" encoding="utf-8"?>
<!-- Generator: Adobe Illustrator 25.1.0, SVG Export Plug-In . SVG Version: 6.00 Build 0)  -->
<svg version="1.1" id="圖層_1" xmlns="http://www.w3.org/2000/svg" xmlns:xlink="http://www.w3.org/1999/xlink" x="0px" y="0px"
	 viewBox="0 0 512 512" style="enable-background:new 0 0 512 512;" xml:space="preserve">
<style type="text/css">
	.st0{fill:#77304c;}
</style>
<path class="st0" d="M505,91.1l-210,210c-10.8,10.8-24.9,16.1-39,16.1s-28.3-5.4-39-16.1L7,91.1c-4.5,8-7,17.1-7,26.9v272.9
	c0,30.4,24.7,55.2,55.2,55.2h401.7c30.4,0,55.2-24.8,55.2-55.2V118.1C512,108.3,509.4,99.1,505,91.1z"/>
<path class="st0" d="M273.8,279.9l210-210c-8-4.5-17.1-7-26.9-7H55.2c-9.8,0-18.9,2.6-26.9,7l210,210
	C248,289.7,264,289.7,273.8,279.9z"/>
</svg>
