<?xml version="1.0" encoding="utf-8"?>
<!-- Generator: Adobe Illustrator 25.1.0, SVG Export Plug-In . SVG Version: 6.00 Build 0)  -->
<svg version="1.1" id="圖層_1" xmlns="http://www.w3.org/2000/svg" xmlns:xlink="http://www.w3.org/1999/xlink" x="0px" y="0px"
	 viewBox="0 0 512 512" style="enable-background:new 0 0 512 512;" xml:space="preserve">
<style type="text/css">
	.st0{fill:#DACFF0;}
</style>
<path class="st0" d="M480,400V208c14.2,0,26.7-9.4,30.7-23s-1.5-28.3-13.4-35.9l-224-144c-10.5-6.8-24.1-6.8-34.6,0l-224,144
	C2.8,156.8-2.7,171.4,1.3,185s16.5,23,30.7,23v192c-17.7,0-32,14.3-32,32v48c0,17.7,14.3,32,32,32h448c17.7,0,32-14.3,32-32v-48
	C512,414.3,497.7,400,480,400z M160,400H96V208h64L160,400L160,400z M288,400h-64V208h64V400z M256,144c-17.7,0-32-14.3-32-32
	c0-17.7,14.3-32,32-32s32,14.3,32,32C288,129.7,273.7,144,256,144z M416,400h-64V208h64V400z"/>
</svg>
